  <svg class="bg-svg" preserveAspectRatio="none" xmlns="http://www.w3.org/2000/svg">
    <defs>
      <pattern id="grid" width="60" height="60" patternUnits="userSpaceOnUse">
        <path d="M 60 0 L 0 0 0 60" fill="none" stroke="rgba(255,255,255,0.04)" strokeWidth="1" />
      </pattern>
      <pattern id="diag" width="80" height="80" patternUnits="userSpaceOnUse">
        <path d="M 0 80 L 80 0" fill="none" stroke="rgba(255,255,255,0.025)" strokeWidth="1" />
      </pattern>
    </defs>
    <rect width="100%" height="100%" fill="url(#grid)" />
    <rect width="100%" height="100%" fill="url(#diag)" />
    <circle cx="15%" cy="25%" r="4" fill="rgba(0,150,136,0.25)" />
    <circle cx="15%" cy="25%" r="8" fill="none" stroke="rgba(0,150,136,0.15)" strokeWidth="1" />
    <circle cx="75%" cy="18%" r="3" fill="rgba(255,255,255,0.12)" />
    <circle cx="75%" cy="18%" r="6" fill="none" stroke="rgba(255,255,255,0.08)" strokeWidth="1" />
    <circle cx="30%" cy="78%" r="3.5" fill="rgba(0,150,136,0.2)" />
    <circle cx="30%" cy="78%" r="7" fill="none" stroke="rgba(0,150,136,0.12)" strokeWidth="1" />
    <circle cx="82%" cy="70%" r="3" fill="rgba(255,255,255,0.1)" />
    <circle cx="82%" cy="70%" r="6" fill="none" stroke="rgba(255,255,255,0.06)" strokeWidth="1" />
    <circle cx="55%" cy="88%" r="2.5" fill="rgba(0,150,136,0.18)" />
    <circle cx="20%" cy="50%" r="2" fill="rgba(255,255,255,0.08)" />
    <circle cx="65%" cy="42%" r="2.5" fill="rgba(0,150,136,0.15)" />
    <rect x="10%" y="40%" width="25%" height="1" rx="0.5" fill="rgba(255,255,255,0.04)" />
    <rect x="60%" y="55%" width="30%" height="1" rx="0.5" fill="rgba(255,255,255,0.035)" />
    <rect x="40%" y="30%" width="1" height="20%" rx="0.5" fill="rgba(255,255,255,0.03)" />
  </svg>